name ./resultDataOpenSim/trcMotMarkerGrf/sub06/grf-03-03.mot
datacolumns 19
datarows 30
range 1.48400000 1.60000000
endheader

                time	     ground_force_vx	     ground_force_vy	     ground_force_vz	     ground_force_px	     ground_force_py	     ground_force_pz	   l_ground_force_vx	   l_ground_force_vy	   l_ground_force_vz	   l_ground_force_px	   l_ground_force_py	   l_ground_force_pz	     ground_torque_x	     ground_torque_y	     ground_torque_z	   l_ground_torque_x	   l_ground_torque_y	   l_ground_torque_z	
          1.48400000	         87.38360048	        609.26900088	        -31.16679115	          0.86248734	          0.00000000	          0.14639967	          0.00000000	          0.00000000	          0.00000000	          0.00000000	          0.00000000	          0.00000000	          0.00000000	          3.26690514	          0.00000000	          0.00000000	          0.00000000	          0.00000000	
          1.48800000	         92.15277100	        627.01036090	        -29.53946366	          0.86311199	          0.00000000	          0.14583942	          0.00000000	          0.00000000	          0.00000000	          0.00000000	          0.00000000	          0.00000000	          0.00000000	          3.43107479	          0.00000000	          0.00000000	          0.00000000	          0.00000000	
          1.49200000	         97.35320501	        644.18818231	        -27.95099769	          0.86369229	          0.00000000	          0.14530183	          0.00000000	          0.00000000	          0.00000000	          0.00000000	          0.00000000	          0.00000000	          0.00000000	          3.58974376	          0.00000000	          0.00000000	          0.00000000	          0.00000000	
          1.49600000	        103.07261868	        660.70913583	        -26.65651816	          0.86421361	          0.00000000	          0.14479529	          0.00000000	          0.00000000	          0.00000000	          0.00000000	          0.00000000	          0.00000000	          0.00000000	          3.74088805	          0.00000000	          0.00000000	          0.00000000	          0.00000000	
          1.50000000	        109.31592205	        676.47067042	        -25.86635748	          0.86468412	          0.00000000	          0.14433163	          0.00000000	          0.00000000	          0.00000000	          0.00000000	          0.00000000	          0.00000000	          0.00000000	          3.88486143	          0.00000000	          0.00000000	          0.00000000	          0.00000000	
          1.50400000	        115.99565310	        691.35214445	        -25.71148882	          0.86510820	          0.00000000	          0.14391729	          0.00000000	          0.00000000	          0.00000000	          0.00000000	          0.00000000	          0.00000000	          0.00000000	          4.02429346	          0.00000000	          0.00000000	          0.00000000	          0.00000000	
          1.50800000	        122.94219898	        705.21311694	        -26.22219179	          0.86549767	          0.00000000	          0.14355344	          0.00000000	          0.00000000	          0.00000000	          0.00000000	          0.00000000	          0.00000000	          0.00000000	          4.16323605	          0.00000000	          0.00000000	          0.00000000	          0.00000000	
          1.51200000	        129.93296238	        717.90715458	        -27.32435366	          0.86588670	          0.00000000	          0.14323732	          0.00000000	          0.00000000	          0.00000000	          0.00000000	          0.00000000	          0.00000000	          0.00000000	          4.30578216	          0.00000000	          0.00000000	          0.00000000	          0.00000000	
          1.51600000	        136.73774447	        729.30138582	        -28.85305182	          0.86629705	          0.00000000	          0.14296085	          0.00000000	          0.00000000	          0.00000000	          0.00000000	          0.00000000	          0.00000000	          0.00000000	          4.45437144	          0.00000000	          0.00000000	          0.00000000	          0.00000000	
          1.52000000	        143.17568183	        739.27800973	        -30.57859580	          0.86674126	          0.00000000	          0.14271593	          0.00000000	          0.00000000	          0.00000000	          0.00000000	          0.00000000	          0.00000000	          0.00000000	          4.60800940	          0.00000000	          0.00000000	          0.00000000	          0.00000000	
          1.52400000	        149.17944714	        747.71898462	        -32.23548015	          0.86723047	          0.00000000	          0.14249321	          0.00000000	          0.00000000	          0.00000000	          0.00000000	          0.00000000	          0.00000000	          0.00000000	          4.76076928	          0.00000000	          0.00000000	          0.00000000	          0.00000000	
          1.52800000	        154.83546269	        754.48454157	        -33.55557708	          0.86775860	          0.00000000	          0.14228652	          0.00000000	          0.00000000	          0.00000000	          0.00000000	          0.00000000	          0.00000000	          0.00000000	          4.90123437	          0.00000000	          0.00000000	          0.00000000	          0.00000000	
          1.53200000	        160.34980151	        759.40192987	        -34.33033993	          0.86830695	          0.00000000	          0.14209012	          0.00000000	          0.00000000	          0.00000000	          0.00000000	          0.00000000	          0.00000000	          0.00000000	          5.01383007	          0.00000000	          0.00000000	          0.00000000	          0.00000000	
          1.53600000	        165.93523960	        762.29033159	        -34.48898381	          0.86883037	          0.00000000	          0.14190289	          0.00000000	          0.00000000	          0.00000000	          0.00000000	          0.00000000	          0.00000000	          0.00000000	          5.08270864	          0.00000000	          0.00000000	          0.00000000	          0.00000000	
          1.54000000	        171.69836361	        763.02232828	        -34.10858969	          0.86930967	          0.00000000	          0.14173044	          0.00000000	          0.00000000	          0.00000000	          0.00000000	          0.00000000	          0.00000000	          0.00000000	          5.09742145	          0.00000000	          0.00000000	          0.00000000	          0.00000000	
          1.54400000	        177.61476123	        761.57151110	        -33.34302073	          0.86976909	          0.00000000	          0.14156973	          0.00000000	          0.00000000	          0.00000000	          0.00000000	          0.00000000	          0.00000000	          0.00000000	          5.05785154	          0.00000000	          0.00000000	          0.00000000	          0.00000000	
          1.54800000	        183.57671604	        757.98797789	        -32.36931078	          0.87022387	          0.00000000	          0.14141079	          0.00000000	          0.00000000	          0.00000000	          0.00000000	          0.00000000	          0.00000000	          0.00000000	          4.97562736	          0.00000000	          0.00000000	          0.00000000	          0.00000000	
          1.55200000	        189.43179697	        752.32223286	        -31.37641625	          0.87066395	          0.00000000	          0.14125556	          0.00000000	          0.00000000	          0.00000000	          0.00000000	          0.00000000	          0.00000000	          0.00000000	          4.87095246	          0.00000000	          0.00000000	          0.00000000	          0.00000000	
          1.55600000	        195.00440221	        744.58885443	        -30.54038224	          0.87109545	          0.00000000	          0.14111469	          0.00000000	          0.00000000	          0.00000000	          0.00000000	          0.00000000	          0.00000000	          0.00000000	          4.76607671	          0.00000000	          0.00000000	          0.00000000	          0.00000000	
          1.56000000	        200.14946776	        734.79916380	        -29.99009986	          0.87153572	          0.00000000	          0.14098683	          0.00000000	          0.00000000	          0.00000000	          0.00000000	          0.00000000	          0.00000000	          0.00000000	          4.67810613	          0.00000000	          0.00000000	          0.00000000	          0.00000000	
          1.56400000	        204.81776426	        722.98675298	        -29.78567325	          0.87198177	          0.00000000	          0.14085698	          0.00000000	          0.00000000	          0.00000000	          0.00000000	          0.00000000	          0.00000000	          0.00000000	          4.61389103	          0.00000000	          0.00000000	          0.00000000	          0.00000000	
          1.56800000	        209.06107647	        709.17432365	        -29.89811298	          0.87241439	          0.00000000	          0.14070831	          0.00000000	          0.00000000	          0.00000000	          0.00000000	          0.00000000	          0.00000000	          0.00000000	          4.56848271	          0.00000000	          0.00000000	          0.00000000	          0.00000000	
          1.57200000	        212.96547032	        693.31796158	        -30.20377623	          0.87279637	          0.00000000	          0.14052735	          0.00000000	          0.00000000	          0.00000000	          0.00000000	          0.00000000	          0.00000000	          0.00000000	          4.52705608	          0.00000000	          0.00000000	          0.00000000	          0.00000000	
          1.57600000	        216.56386789	        675.28301646	        -30.50847537	          0.87308588	          0.00000000	          0.14031071	          0.00000000	          0.00000000	          0.00000000	          0.00000000	          0.00000000	          0.00000000	          0.00000000	          4.46911855	          0.00000000	          0.00000000	          0.00000000	          0.00000000	
          1.58000000	        219.77552712	        654.87393869	        -30.57812961	          0.87325897	          0.00000000	          0.14006072	          0.00000000	          0.00000000	          0.00000000	          0.00000000	          0.00000000	          0.00000000	          0.00000000	          4.37335213	          0.00000000	          0.00000000	          0.00000000	          0.00000000	
          1.58400000	        222.39201175	        631.87797888	        -30.16881203	          0.87330205	          0.00000000	          0.13976992	          0.00000000	          0.00000000	          0.00000000	          0.00000000	          0.00000000	          0.00000000	          0.00000000	          4.22156974	          0.00000000	          0.00000000	          0.00000000	          0.00000000	
          1.58800000	        224.09976311	        606.05597981	        -29.07255150	          0.87320953	          0.00000000	          0.13942408	          0.00000000	          0.00000000	          0.00000000	          0.00000000	          0.00000000	          0.00000000	          0.00000000	          4.00108362	          0.00000000	          0.00000000	          0.00000000	          0.00000000	
          1.59200000	        224.51322010	        577.09380596	        -27.16497603	          0.87299819	          0.00000000	          0.13901890	          0.00000000	          0.00000000	          0.00000000	          0.00000000	          0.00000000	          0.00000000	          0.00000000	          3.70580361	          0.00000000	          0.00000000	          0.00000000	          0.00000000	
          1.59600000	        223.20279417	        544.59116107	        -24.42690636	          0.87267019	          0.00000000	          0.13856387	          0.00000000	          0.00000000	          0.00000000	          0.00000000	          0.00000000	          0.00000000	          0.00000000	          3.33691130	          0.00000000	          0.00000000	          0.00000000	          0.00000000	
          1.60000000	        219.71952207	        508.14132347	        -20.94530573	          0.87222068	          0.00000000	          0.13809118	          0.00000000	          0.00000000	          0.00000000	          0.00000000	          0.00000000	          0.00000000	          0.00000000	          2.90376487	          0.00000000	          0.00000000	          0.00000000	          0.00000000	
